<?xml version="1.0" encoding="UTF-8" standalone="no"?>
<!-- Created with Inkscape (http://www.inkscape.org/) -->
<svg
   xmlns:dc="http://purl.org/dc/elements/1.1/"
   xmlns:cc="http://web.resource.org/cc/"
   xmlns:rdf="http://www.w3.org/1999/02/22-rdf-syntax-ns#"
   xmlns:svg="http://www.w3.org/2000/svg"
   xmlns="http://www.w3.org/2000/svg"
   xmlns:xlink="http://www.w3.org/1999/xlink"
   xmlns:sodipodi="http://sodipodi.sourceforge.net/DTD/sodipodi-0.dtd"
   xmlns:inkscape="http://www.inkscape.org/namespaces/inkscape"
   version="1.0"
   width="533"
   height="367"
   id="svg2"
   sodipodi:version="0.32"
   inkscape:version="0.44.1"
   sodipodi:docname="Dicty_Life_Cycle_H01.svg"
   sodipodi:docbase="C:\Documents and Settings\Brittany Boyer\My Documents\Pictures\Work\Wikimedia\Clean up\Convert to SVG">
  <metadata
     id="metadata87">
    <rdf:RDF>
      <cc:Work
         rdf:about="">
        <dc:format>image/svg+xml</dc:format>
        <dc:type
           rdf:resource="http://purl.org/dc/dcmitype/StillImage" />
      </cc:Work>
    </rdf:RDF>
  </metadata>
  <sodipodi:namedview
     inkscape:window-height="964"
     inkscape:window-width="1280"
     inkscape:pageshadow="2"
     inkscape:pageopacity="0.0"
     guidetolerance="10.0"
     gridtolerance="10.0"
     objecttolerance="10.0"
     borderopacity="1.0"
     bordercolor="#666666"
     pagecolor="#ffffff"
     id="base"
     inkscape:zoom="5.810992"
     inkscape:cx="389.69943"
     inkscape:cy="285.5982"
     inkscape:window-x="-4"
     inkscape:window-y="-4"
     inkscape:current-layer="Sizes" />
  <defs
     id="defs4">
    <linearGradient
       id="linearGradient4663">
      <stop
         style="stop-color:white;stop-opacity:1"
         offset="0"
         id="stop4665" />
      <stop
         style="stop-color:#6f6f6f;stop-opacity:1"
         offset="1"
         id="stop4667" />
    </linearGradient>
    <radialGradient
       cx="387.01471"
       cy="110.96746"
       r="20.576782"
       fx="387.01471"
       fy="110.96746"
       id="radialGradient4669"
       xlink:href="#linearGradient4663"
       gradientUnits="userSpaceOnUse"
       gradientTransform="matrix(-1.356479,1.553115e-2,-7.514956e-3,-0.656351,912.8261,183.6839)" />
    <radialGradient
       cx="484.8237"
       cy="176.49286"
       r="7.1838527"
       fx="484.8237"
       fy="176.49286"
       id="radialGradient7532"
       xlink:href="#linearGradient4663"
       gradientUnits="userSpaceOnUse"
       gradientTransform="matrix(1,0,0,5.091648,0,-722.1467)" />
    <radialGradient
       cx="461.83798"
       cy="250.4799"
       r="7.2865753"
       fx="461.83798"
       fy="250.4799"
       id="radialGradient7534"
       xlink:href="#linearGradient4663"
       gradientUnits="userSpaceOnUse"
       gradientTransform="matrix(1,0,0,3.433725,0,-609.5992)" />
    <radialGradient
       cx="384.26089"
       cy="284.47656"
       r="7.3460941"
       fx="384.26089"
       fy="284.47656"
       id="radialGradient7536"
       xlink:href="#linearGradient4663"
       gradientUnits="userSpaceOnUse"
       gradientTransform="matrix(1,0,0,3.103942,0,-598.5221)" />
    <radialGradient
       cx="255.47981"
       cy="345.08273"
       r="21.821848"
       fx="255.47981"
       fy="345.08273"
       id="radialGradient7538"
       xlink:href="#linearGradient4663"
       gradientUnits="userSpaceOnUse"
       gradientTransform="matrix(1,0,0,0.184183,0,281.5245)" />
    <radialGradient
       cx="289.5488"
       cy="280.45844"
       r="11.947343"
       fx="289.5488"
       fy="280.45844"
       id="radialGradient7540"
       xlink:href="#linearGradient4663"
       gradientUnits="userSpaceOnUse"
       gradientTransform="matrix(1,0,0,0.790603,0,58.72727)" />
    <radialGradient
       cx="214.2289"
       cy="278.66843"
       r="4.2570777"
       fx="214.2289"
       fy="278.66843"
       id="radialGradient7542"
       xlink:href="#linearGradient4663"
       gradientUnits="userSpaceOnUse"
       gradientTransform="matrix(1,0,0,4.406599,0,-949.3116)" />
    <radialGradient
       cx="123.30163"
       cy="264.89761"
       r="10.957764"
       fx="123.30163"
       fy="264.89761"
       id="radialGradient7544"
       xlink:href="#linearGradient4663"
       gradientUnits="userSpaceOnUse"
       gradientTransform="matrix(1,0,0,0.779901,0,58.30374)" />
    <radialGradient
       cx="45.812672"
       cy="230.65952"
       r="19.272898"
       fx="45.812672"
       fy="230.65952"
       id="radialGradient7546"
       xlink:href="#linearGradient4663"
       gradientUnits="userSpaceOnUse"
       gradientTransform="matrix(1,0,0,0.279297,0,166.2371)" />
    <radialGradient
       cx="42.135368"
       cy="174.72514"
       r="42.287418"
       fx="42.135368"
       fy="174.72514"
       id="radialGradient7548"
       xlink:href="#linearGradient4663"
       gradientUnits="userSpaceOnUse"
       gradientTransform="matrix(1,0,0,0.704107,0,51.7)" />
  </defs>
  <g
     id="Unicellular Bodies">
    <path
       id="path4661"
       style="fill:url(#radialGradient4669);fill-opacity:1;stroke:#6f6f6f;stroke-opacity:1"
       d="M 398.75772,121.40666 C 398.76267,126.08048 389.77254,129.87046 378.68094,129.87046 C 367.58934,129.87046 358.59921,126.08048 358.60416,121.40666 C 358.59921,116.73284 367.58934,112.94286 378.68094,112.94286 C 389.77254,112.94286 398.76267,116.73284 398.75772,121.40666 L 398.75772,121.40666 z " />
    <path
       id="path3662"
       style="fill:#dbd9d9;fill-opacity:1;fill-rule:evenodd;stroke:#7f807f;stroke-width:1px;stroke-linecap:butt;stroke-linejoin:miter;stroke-opacity:1"
       d="M 233.34525,33.649658 C 230.55803,43.808401 242.28255,49.431741 247.49351,56.276484 C 254.43113,62.830739 272.36234,54.847803 265.10963,45.83307 C 261.06847,43.914816 253.66795,43.891074 249.64083,42.180939 C 246.56325,40.874024 244.44357,38.162013 242.06644,35.368679 C 239.39797,33.977105 236.33229,33.471988 233.34525,33.649658 z " />
    <path
       id="path3680"
       style="fill:#dbd9d9;fill-opacity:1;fill-rule:evenodd;stroke:#7f807f;stroke-width:1px;stroke-linecap:butt;stroke-linejoin:miter;stroke-opacity:1"
       d="M 229.80969,49.307022 C 226.05149,41.600785 213.95192,39.93996 208.57827,46.831421 C 204.8769,52.42734 198.11895,56.219078 195.69692,62.23769 C 196.51967,70.373699 206.25022,67.11125 208.79772,61.787625 C 212.53723,55.926463 215.73008,58.837514 222.77613,57.756977 C 225.30351,57.572605 231.40979,52.105145 229.80969,49.307022 z " />
    <path
       id="path3708"
       style="fill:#dbd9d9;fill-opacity:1;fill-rule:evenodd;stroke:#7f807f;stroke-width:1px;stroke-linecap:butt;stroke-linejoin:miter;stroke-opacity:1"
       d="M 288.65109,104.61287 C 289.86411,98.358857 280.87448,94.380722 274.72052,94.451319 C 267.0981,94.538763 260.11502,105.52881 255.94035,111.64648 C 252.77328,116.28757 252.10611,119.47534 259.04263,118.92826 C 267.93024,118.2273 268.57252,110.41805 274.05271,110.23412 C 277.3406,110.12377 287.75673,109.22402 288.65109,104.61287 z " />
    <path
       id="path3742"
       style="fill:#dbd9d9;fill-opacity:1;fill-rule:evenodd;stroke:#7f807f;stroke-width:1px;stroke-linecap:butt;stroke-linejoin:miter;stroke-opacity:1"
       d="M 171.22086,131.63446 C 168.90358,135.40467 171.33819,139.69721 175.62472,143.11873 C 178.91819,145.74759 178.0688,149.93421 184.85707,153.59614 C 191.21371,157.02522 205.44631,155.18054 204.97909,147.46254 C 204.68008,142.52324 200.46635,141.70124 195.76952,140.08512 C 192.36155,138.91247 188.34083,140.61686 185.71936,137.14088 C 183.26576,133.88749 172.85611,128.97392 171.22086,131.63446 z " />
  </g>
  <rect
     id="rect4672"
     style="fill:none;fill-opacity:1;stroke:black;stroke-width:0.99443126;stroke-opacity:1"
     y="1.8543581"
     x="139.99722"
     height="177.29129"
     width="309.29126" />
  <g
     id="Multicellular Bodies">
    <path
       id="path5750"
       style="fill:url(#radialGradient7538);fill-opacity:1;stroke:black;stroke-opacity:1"
       d="M 236.75,348.35643 C 233.28334,347.73965 233.29418,346.0655 236.78142,343.5 C 239.24442,341.68802 241.00418,341.50706 255.5,341.57512 C 272.37252,341.65434 277.39544,342.29541 276.7472,344.28688 C 275.81914,347.13796 270.76328,348.12423 255.23944,348.48248 C 246.58275,348.68226 238.2625,348.62553 236.75,348.35643 z " />
    <path
       id="path5740"
       style="fill:url(#radialGradient7536);fill-opacity:1;stroke:black;stroke-opacity:1"
       d="M 381.1855,302.80136 C 377.36438,294.75487 376.73045,290.4436 378.0262,281.3154 C 378.67965,276.71206 379.27857,270.60157 379.35714,267.73654 C 379.4687,263.66862 379.87811,262.45457 381.22587,262.19502 C 382.5221,261.94539 383.96246,263.96006 387.01185,270.28803 C 390.43076,277.38285 391.07741,279.72308 391.10648,285.10671 C 391.12769,289.0327 390.47292,293.04368 389.40984,295.5 C 388.4577,297.7 387.40662,301.07016 387.07412,302.98923 C 386.18653,308.11207 383.66932,308.03175 381.1855,302.80136 z " />
    <path
       id="path5736"
       style="fill:url(#radialGradient7542);fill-opacity:1;stroke:black;stroke-opacity:1"
       d="M 211.87244,295.34579 C 209.30253,292.24825 210.53322,265.3882 213.42635,261.43161 C 216.00524,257.90477 217.3052,263.3725 217.80685,279.85625 C 218.1838,292.24237 218.0059,295.38241 216.88709,296.09094 C 214.82027,297.39984 213.40174,297.18905 211.87244,295.34579 z " />
    <path
       id="path5728"
       style="fill:url(#radialGradient7540);fill-opacity:1;stroke:black;stroke-opacity:1"
       d="M 286,289.10101 C 278.40246,288.24173 277.67144,287.60732 278.26017,282.38411 C 278.93087,276.43374 281.33229,273 284.82305,273 C 286.35037,273 288.06907,272.53093 288.64238,271.95762 C 289.36556,271.23444 290.07675,271.38756 290.96483,272.45762 C 291.66886,273.30593 293.3214,274 294.63714,274 C 299.4953,274 303.38622,285.67943 299.25,287.8465 C 296.40974,289.33459 291.86764,289.76464 286,289.10101 z " />
    <path
       id="path5720"
       style="fill:url(#radialGradient7534);fill-opacity:1;stroke:black;stroke-opacity:1"
       d="M 462.8495,266.04218 C 462.5813,259.16803 462.11318,256.78379 460.83704,255.79218 C 455.7559,251.84395 453.75459,243.40093 455.90853,235 C 456.40208,233.075 457.08314,230.2625 457.422,228.75 C 458.04516,225.96849 461,224.83508 461,227.37756 C 461,228.13521 461.70789,229.34261 462.57309,230.06066 C 467.59385,234.22752 470.28441,247.03352 467.51086,253.56244 C 466.22526,256.58871 465.98697,259.066 466.48124,264.26644 C 467.18594,271.68099 466.58324,275 464.53211,275 C 463.54652,275 463.10789,272.66485 462.8495,266.04218 z " />
    <path
       id="path5716"
       style="fill:url(#radialGradient7544);fill-opacity:1;stroke:black;stroke-opacity:1"
       d="M 116.25,271.50913 C 111.6542,269.51161 111.71395,265.08605 116.4,260.4 C 121.03106,255.76894 125.9526,255.66724 130.10903,260.11672 C 133.54994,263.80023 134.56898,267.06833 133.12055,269.77476 C 131.35135,273.08052 122.06246,274.03547 116.25,271.50913 z " />
    <path
       id="path5708"
       style="fill:url(#radialGradient7546);fill-opacity:1;stroke:black;stroke-opacity:1"
       d="M 38.5,234.91808 C 36.85,234.38087 33.5875,234.2071 31.25,234.53194 C 28.9125,234.85677 27.017984,234.75747 27.039964,234.31127 C 27.061944,233.86507 30.099444,231.71374 33.789964,229.53054 C 42.153975,224.58263 45.637824,224.54691 56.305302,229.2997 C 60.598219,231.21236 64.319103,232.98577 64.573933,233.2406 C 64.828764,233.49543 60.866378,233.99393 55.768631,234.34837 C 50.670884,234.70281 45.375,235.19577 44,235.44382 C 42.625,235.69188 40.15,235.45529 38.5,234.91808 z " />
    <path
       id="path5702"
       style="fill:url(#radialGradient7532);fill-opacity:1;stroke:black;stroke-opacity:1"
       d="M 483.05654,212.03494 C 482.26227,211.54406 481.98468,210.4823 482.38076,209.45013 C 484.85062,203.01378 487.4549,163.97734 485.71314,159.5 C 485.28522,158.4 483.4872,156.59405 481.71755,155.48677 C 479.19905,153.91093 478.43374,152.68139 478.19504,149.82747 C 477.94612,146.85136 478.47647,145.58153 481.08131,142.91682 C 483.79133,140.14451 484.44048,139.87629 485.38627,141.13809 C 485.99882,141.95531 487.29425,142.92202 488.26501,143.28635 C 491.95511,144.67123 492.70712,152.33833 489.42039,155.06607 C 488.34837,155.95577 488.17006,158.15943 488.62816,164.85709 C 488.98961,170.14169 488.58535,179.53136 487.58776,189.02225 C 486.69042,197.55948 485.89245,206.24093 485.8145,208.31435 C 485.65779,212.48283 485.0682,213.27822 483.05654,212.03494 z " />
    <path
       id="path5698"
       style="fill:url(#radialGradient7548);fill-opacity:1;stroke:black;stroke-opacity:1"
       d="M 64.198901,201.98312 C 63.165446,200.87384 61.702327,198.73634 60.947525,197.23312 C 58.481043,192.32103 48.898688,179.01568 47.179225,178.11547 C 45.006677,176.97806 41.488422,178.32539 40.518257,180.66632 C 40.100289,181.67484 39.428637,185.99656 39.025697,190.27013 C 38.622758,194.5437 38.002137,198.3312 37.64654,198.68679 C 35.461376,200.87196 34.982168,193.98075 36.468772,181.75 C 37.137142,176.2511 37.030721,175.00009 35.894605,175.0005 C 33.873655,175.00123 24.049821,178.85266 21.052937,180.81917 C 16.325829,183.92103 14.525815,184.95048 9.4035085,187.48162 C 4.2040872,190.05086 -0.41877052,190.66155 0.75496975,188.7624 C 2.4252011,186.05991 22.830414,175.11017 31,172.49732 C 34.462436,171.38994 37.37613,169.65797 38.864939,167.82219 L 41.229878,164.90611 L 39.505875,156.03025 C 37.633282,146.38938 37.945338,141.734 39.977121,149 C 44.180848,164.03323 44.397484,164.44941 48.353876,165.0925 C 50.383166,165.42235 53.138446,166.72089 54.47672,167.97813 C 56.798253,170.1591 57.382523,170.2327 67.204973,169.58157 C 72.867238,169.20622 79.020309,168.63589 80.878464,168.31417 C 85.198487,167.5662 84.805217,170.05082 80.431981,171.13498 C 77.53069,171.85424 57.592249,174.07737 53.25,174.16577 C 50.075506,174.23039 50.443941,175.7745 55,181.5 C 57.188309,184.25 58.983526,186.79427 58.989372,187.15393 C 58.995217,187.5136 60.498366,190.45875 62.329702,193.69871 C 65.387888,199.1092 67.341892,204 66.445336,204 C 66.243252,204 65.232356,203.0924 64.198901,201.98312 z " />
  </g>
  <path
     id="Arrows"
     style="fill:black;fill-opacity:1;stroke:none;stroke-opacity:1"
     d="M 141,127.6594 L 149.09701,129.39936 C 153.55036,130.35634 156.93911,131.39422 156.62756,131.70577 C 156.08612,132.24721 145.3217,130.44441 142.39873,129.32276 L 140,129.15891 L 136.77156,128.44983 C 134.99591,128.05983 128.35841,127.74356 122.02156,127.74701 C 103.52268,127.75707 86.359901,132.12887 73.2014,140.18276 C 64.730471,145.36754 63.492143,146.58534 65.775699,147.48532 C 67.06981,147.99534 66.267321,148.63726 62.559138,150.05825 C 59.841665,151.0996 57.536667,151.85 57.436921,151.72581 C 57.337175,151.60161 58.150916,149.475 59.245234,147 C 60.339553,144.525 61.444551,143.0625 61.700785,143.75 C 62.400422,145.62719 63.883608,145.27572 67.263325,142.43188 C 72.048762,138.4052 85.032163,132.28407 93.646512,129.99332 C 105.19047,126.92351 121.78828,125.4522 131.75,126.61564 L 140,127.57917 L 141,127.6594 z M 448,126.18625 L 441.25,123.97425 C 432.73663,121.18438 417.36185,120.06281 416.846,122.19401 C 416.55842,123.38212 415.74021,123.43195 412,122.48911 L 407.5,121.35474 L 411.75,119.15705 C 414.0875,117.94831 416,117.4185 416,117.97968 C 416,118.54085 417.65093,118.96579 419.66809,119 C 443.58395,119.40556 462.8052,132.58995 469.55745,138.77855 C 471.66271,141.78424 469.91206,141.59975 467.00942,138.51002 C 463.83285,135.12873 452.75715,128 450.68028,128 L 448,126.18625 z M 216.58539,344.63806 C 216.9399,343.71424 215.24097,342.53345 211.30401,340.9674 C 201.8844,337.22045 197.22299,333.4817 192.35341,325.76779 C 189.01761,320.48353 188.23454,312.81899 190.3733,306.38675 C 192.02794,301.41047 200.17551,290 202.07415,290 C 202.64884,290 201.34094,292.1375 199.16769,294.75 C 191.0336,304.52814 188.59717,314.49366 192.24011,323.08529 C 194.34446,328.04828 201.74842,335.06832 208.14511,338.16558 C 215.88728,341.91431 217.77521,342.36704 218.16867,340.56922 C 218.41847,339.42784 219.48431,339.90052 222.5,342.4901 L 226.5,345.92491 L 221.28138,345.96245 C 217.27836,345.99125 216.18451,345.68276 216.58539,344.63806 z M 287.65209,345.31876 C 287.29831,344.96498 288.69437,343.91907 290.75443,342.99452 C 296.0141,340.634 301.4501,334.85537 304.52459,328.35643 C 308.75137,319.42176 307.89869,305.5399 302.73387,299.20267 C 301.92412,298.20911 301.50309,298.18599 300.93577,299.10393 C 300.4605,299.87292 299.41263,298.76899 298.01223,296.02398 L 295.82948,291.74543 L 299.66474,292.45053 C 304.21635,293.28733 306.01984,294.67142 303.71237,295.55688 C 302.28739,296.10369 302.38389,296.6241 304.50651,299.83966 C 311.65307,310.66601 309.32505,328.6284 299.54408,338.12864 C 295.34274,342.20939 288.61216,346.27883 287.65209,345.31876 z M 354.69189,292.0702 C 355.12915,290.39814 353.76038,290.23857 334.83075,289.75468 C 322.88672,289.44936 313.46872,288.76444 312,288.09432 C 309.81492,287.09735 310.06686,287.02266 314,287.50143 C 316.475,287.8027 326.78719,288.3323 336.91597,288.67831 C 353.78857,289.2547 355.27876,289.16883 354.69736,287.65371 C 353.88281,285.53103 355.57392,285.58992 359.77498,287.83051 L 363.04996,289.5772 L 358.63612,291.72161 C 354.57657,293.69389 354.25997,293.72187 354.69189,292.0702 z M 409,290.87917 C 417.13588,289.37775 433.66575,284.16829 437.31593,281.95529 C 439.06717,280.89357 441.46879,279.59704 442.65286,279.07413 C 445.5597,277.79039 446.55153,275.9589 444.89448,274.93479 C 443.90088,274.32071 444.53342,273.67507 447.23425,272.54659 C 452.60143,270.30404 453.01254,270.55849 451.25424,275.03469 C 450.20696,277.7008 449.33313,278.73313 448.67809,278.07809 C 448.02306,277.42306 446.80713,277.702 445.09341,278.90045 C 435.85835,285.35876 421.46721,290.45687 409.84759,291.38638 L 403.5,291.89416 L 409,290.87917 z M 196,286.26291 C 196,284.67717 195.13622,284.5244 188.00209,284.84838 C 179.52719,285.23324 162.1313,283.56988 156.7285,281.85805 C 153.39897,280.80312 151.31193,280.02362 147,278.22447 C 145.625,277.65076 143.6,276.84591 142.5,276.43592 C 140.77287,275.79219 140.73067,275.63493 142.1907,275.28334 C 143.12059,275.05941 144.92059,275.53972 146.1907,276.3507 C 150.42585,279.05488 162.84623,282.06398 173.71402,283.0188 C 184.74169,283.98767 195.02985,283.41459 196.10669,281.77147 C 196.47215,281.21381 198.40092,281.30014 200.95763,281.98859 C 203.29197,282.61716 205.04396,283.27156 204.85094,283.44281 C 204.65792,283.61405 202.5875,284.71862 200.25,285.8974 C 196.31419,287.88221 196,287.90923 196,286.26291 z M 227,279.44071 C 227,278.94807 232.78388,276.41172 237.5,274.83624 C 240.08023,273.97429 246.29174,273.51468 255,273.54137 C 262.425,273.56412 268.75065,273.22809 269.057,272.79463 C 269.36335,272.36118 271.13912,273.58006 273.00317,275.50327 L 276.39233,279 L 271.07372,279 C 266.52621,279 265.93064,278.7885 266.96581,277.5412 C 268.77957,275.35574 264.39177,274.47437 252.5,274.63548 C 244.82378,274.73947 240.69907,275.35383 234.75,277.27927 C 230.4875,278.65884 227,279.63149 227,279.44071 z M 92,265.87607 C 92,264.22416 91.182723,264 85.159963,264 C 77.474829,264 65.130706,261.17357 59.939583,258.22531 C 49.056156,252.04413 46.558709,250.12489 51.25,251.54755 C 52.4875,251.92282 54.4,253.00401 55.5,253.95018 C 59.114452,257.05917 68.079964,260.48829 76.433659,261.95686 C 84.228742,263.32724 91.737754,263.28674 92.209406,261.87178 C 92.465942,261.10217 93.944188,261.34057 96.860082,262.62178 L 101.13468,264.5 L 96.567342,266.12607 C 92.189406,267.68471 92,267.67434 92,265.87607 z M 481,256 C 481,255.45 481.51615,255 482.14701,255 C 484.52423,255 492.14888,247.63917 494.41229,243.15912 C 495.70692,240.5966 497.30855,235.87456 497.97148,232.66569 C 499.46178,225.45196 498.50627,215 496.3565,215 C 495.2304,215 495.05978,214.1681 495.58735,211.25 C 495.96023,209.1875 496.35009,207.39303 496.45369,207.2623 C 496.5573,207.13156 497.70014,208.45572 498.99334,210.20486 C 500.46569,212.19632 500.92015,213.52662 500.20909,213.76364 C 499.42344,214.02552 499.25496,216.50817 499.66229,221.82107 C 500.72319,235.65882 495.7872,247.74584 486.43432,254.21309 C 482.16889,257.16251 481,257.54686 481,256 z M 10.173397,230.75 C 10.316986,230.0625 9.0479987,228.00431 7.3534253,226.17625 C 0.052702989,218.30041 0.52201929,205.30285 8.3680812,198.07569 C 11.921828,194.80226 11.707138,196.10235 8.0289306,200.12947 C 3.6825584,204.88814 2.1622494,212.51786 4.3952933,218.365 C 6.4284344,223.6887 10.849671,228.86127 11.906016,227.15207 C 12.386046,226.37537 13.566596,226.98196 15.497634,228.99753 L 18.374182,232 L 14.143254,232 C 11.285941,232 9.9970858,231.59417 10.173397,230.75 z M 215,157 C 212.525,155.35471 210.95,153.98704 211.5,153.96073 C 212.05,153.93442 214.41834,153.54185 216.76298,153.08835 C 220.31596,152.40113 220.83685,152.49166 219.89053,153.6319 C 218.48428,155.32633 220.84172,155.42375 229.38706,154.02433 C 243.78162,151.66701 257.36839,140.95745 260.50003,129.5 C 261.03905,127.52792 261.45484,127.06436 261.71351,128.14708 C 262.36996,130.89481 258.24803,138.31262 253.23509,143.4048 C 245.66348,151.09611 233.82699,156 222.83415,156 C 219.25907,156 218.83004,156.24208 219.28975,158 C 219.57741,159.1 219.74239,159.99807 219.65638,159.99572 C 219.57037,159.99336 217.475,158.64529 215,157 z M 346,115.077 C 343.525,114.11498 340.825,113.04343 340,112.69578 C 335.24976,110.69406 312.90862,106 308.13177,106 C 307.58995,106 307.00115,106.59028 306.82332,107.31174 C 306.56796,108.34774 305.61214,108.40029 302.27623,107.56174 L 298.05247,106.5 L 302.88445,103.93417 C 306.69498,101.91074 307.62871,101.70382 307.30142,102.95536 C 306.96061,104.25863 308.54468,104.76823 316.16119,105.80553 C 325.04553,107.01551 340.58497,111.01941 344.23643,113.0394 C 345.19147,113.56773 346.56796,114 347.2953,114 C 348.02264,114 349.49125,114.66069 350.55887,115.4682 C 353.08281,117.37721 351.58769,117.24891 346,115.077 z M 242.62231,104.54187 C 243.00901,103.53414 242.30432,102.91555 240.34092,102.53923 C 226.03953,99.798082 218.88145,97.071342 212.33983,91.87271 C 207.23976,87.81969 201.98195,80.236611 202.07895,77.073978 C 202.14314,74.980958 202.44147,75.301544 203.67551,78.789679 C 205.65468,84.384012 213.49716,92.051338 220.78239,95.514494 C 228.46359,99.165884 241.77901,101.9756 242.88919,100.1793 C 243.52972,99.142902 244.41405,99.229806 247.31777,100.61449 L 250.94601,102.34468 L 246.8638,104.17234 C 241.94724,106.37355 241.91846,106.37606 242.62231,104.54187 z M 277.61823,87.209359 C 281.86382,83.520455 284,78.96991 284,73.61476 C 284,68.00051 282.62135,64.28464 279.21282,60.711934 C 277.07713,58.473369 276.44659,58.22687 276.01359,59.461247 C 275.56582,60.737746 274.82781,60.538638 271.66448,58.287892 C 268.37653,55.948482 268.10432,55.478764 269.67732,54.858864 C 272.71433,53.662017 277.20865,53.874057 276.76885,55.19344 C 276.55006,55.849832 277.8577,57.692185 279.67473,59.287558 C 285.24813,64.181067 287.15873,74.599033 283.74838,81.5 C 282.37182,84.285521 276.828,90.008497 275.55383,89.959359 C 274.97422,89.937007 275.9032,88.699507 277.61823,87.209359 z " />
  <path
     id="Dots"
     style="fill:black;fill-opacity:1"
     d="M 271,51 C 271,50.45 271.70156,50 272.55902,50 C 273.41648,50 273.83992,50.45 273.5,51 C 273.16008,51.55 272.45852,52 271.94098,52 C 271.42344,52 271,51.55 271,51 z M 265,42 C 265,41.45 265.45,41 266,41 C 266.55,41 267,41.45 267,42 C 267,42.55 266.55,43 266,43 C 265.45,43 265,42.55 265,42 z M 236,67 C 236,66.45 236.45,66 237,66 C 237.55,66 238,66.45 238,67 C 238,67.55 237.55,68 237,68 C 236.45,68 236,67.55 236,67 z M 243,63 C 243,62.45 243.45,62 244,62 C 244.55,62 245,62.45 245,63 C 245,63.55 244.55,64 244,64 C 243.45,64 243,63.55 243,63 z M 254,63 C 254,62.45 254.45,62 255,62 C 255.55,62 256,62.45 256,63 C 256,63.55 255.55,64 255,64 C 254.45,64 254,63.55 254,63 z M 237,62 C 237,61.45 237.45,61 238,61 C 238.55,61 239,61.45 239,62 C 239,62.55 238.55,63 238,63 C 237.45,63 237,62.55 237,62 z M 246.51008,61.016312 C 246.16462,60.45734 246.58352,60 247.44098,60 C 249.19751,60 249.45614,60.600055 248.0691,61.457295 C 247.5571,61.773726 246.85554,61.575283 246.51008,61.016312 z M 234,58 C 234,57.45 234.45,57 235,57 C 235.55,57 236,57.45 236,58 C 236,58.55 235.55,59 235,59 C 234.45,59 234,58.55 234,58 z M 237,54 C 237,53.45 237.45,53 238,53 C 238.55,53 239,53.45 239,54 C 239,54.55 238.55,55 238,55 C 237.45,55 237,54.55 237,54 z M 231,49.559017 C 231,48.503542 232.91911,48.060106 233.48992,48.983688 C 233.83538,49.54266 233.41648,50 232.55902,50 C 231.70156,50 231,49.801558 231,49.559017 z M 257.5,40 C 257.16008,39.45 257.58352,39 258.44098,39 C 259.29844,39 260,39.45 260,40 C 260,40.55 259.57656,41 259.05902,41 C 258.54148,41 257.83992,40.55 257.5,40 z M 245,36 C 245,35.45 245.45,35 246,35 C 246.55,35 247,35.45 247,36 C 247,36.55 246.55,37 246,37 C 245.45,37 245,36.55 245,36 z M 255,35 C 255,34.45 255.45,34 256,34 C 256.55,34 257,34.45 257,35 C 257,35.55 256.55,36 256,36 C 255.45,36 255,35.55 255,35 z M 233,31 C 233,30.45 233.45,30 234,30 C 234.55,30 235,30.45 235,31 C 235,31.55 234.55,32 234,32 C 233.45,32 233,31.55 233,31 z M 241,29 C 241,28.45 241.675,28 242.5,28 C 243.325,28 244,28.45 244,29 C 244,29.55 243.325,30 242.5,30 C 241.675,30 241,29.55 241,29 z M 277,122 C 277,121.45 277.45,121 278,121 C 278.55,121 279,121.45 279,122 C 279,122.55 278.55,123 278,123 C 277.45,123 277,122.55 277,122 z M 269,121 C 269,120.45 269.45,120 270,120 C 270.55,120 271,120.45 271,121 C 271,121.55 270.55,122 270,122 C 269.45,122 269,121.55 269,121 z M 284,119.55902 C 284,118.50354 285.91911,118.06011 286.48992,118.98369 C 286.83538,119.54266 286.41648,120 285.55902,120 C 284.70156,120 284,119.80156 284,119.55902 z M 244,118 C 244,117.45 244.45,117 245,117 C 245.55,117 246,117.45 246,118 C 246,118.55 245.55,119 245,119 C 244.45,119 244,118.55 244,118 z M 272,115 C 272,114.45 272.45,114 273,114 C 273.55,114 274,114.45 274,115 C 274,115.55 273.55,116 273,116 C 272.45,116 272,115.55 272,115 z M 284,114 C 284,113.45 284.675,113 285.5,113 C 286.325,113 287,113.45 287,114 C 287,114.55 286.325,115 285.5,115 C 284.675,115 284,114.55 284,114 z M 290,111 C 290,110.45 290.19844,110 290.44098,110 C 290.68352,110 291.16008,110.45 291.5,111 C 291.83992,111.55 291.64148,112 291.05902,112 C 290.47656,112 290,111.55 290,111 z M 252,110 C 252,109.45 252.45,109 253,109 C 253.55,109 254,109.45 254,110 C 254,110.55 253.55,111 253,111 C 252.45,111 252,110.55 252,110 z M 290,97 C 290,96.45 290.45,96 291,96 C 291.55,96 292,96.45 292,97 C 292,97.55 291.55,98 291,98 C 290.45,98 290,97.55 290,97 z M 242.5,112 C 242.83992,111.45 243.54148,111 244.05902,111 C 244.57656,111 245,111.45 245,112 C 245,112.55 244.29844,113 243.44098,113 C 242.58352,113 242.16008,112.55 242.5,112 z M 295,104 C 295,103.45 295.45,103 296,103 C 296.55,103 297,103.45 297,104 C 297,104.55 296.55,105 296,105 C 295.45,105 295,104.55 295,104 z M 255,103.55902 C 255,102.50354 256.91911,102.06011 257.48992,102.98369 C 257.83538,103.54266 257.41648,104 256.55902,104 C 255.70156,104 255,103.80156 255,103.55902 z M 259.5,98 C 259.16008,97.45 259.58352,97 260.44098,97 C 261.29844,97 262,97.45 262,98 C 262,98.55 261.57656,99 261.05902,99 C 260.54148,99 259.83992,98.55 259.5,98 z M 265,94 C 265,93.45 265.675,93 266.5,93 C 267.325,93 268,93.45 268,94 C 268,94.55 267.325,95 266.5,95 C 265.675,95 265,94.55 265,94 z M 280,94 C 280,93.45 280.45,93 281,93 C 281.55,93 282,93.45 282,94 C 282,94.55 281.55,95 281,95 C 280.45,95 280,94.55 280,94 z M 254,92 C 254,91.45 254.45,91 255,91 C 255.55,91 256,91.45 256,92 C 256,92.55 255.55,93 255,93 C 254.45,93 254,92.55 254,92 z M 286,92 C 286,91.45 286.45,91 287,91 C 287.55,91 288,91.45 288,92 C 288,92.55 287.55,93 287,93 C 286.45,93 286,92.55 286,92 z M 264,86 C 264,85.45 264.45,85 265,85 C 265.55,85 266,85.45 266,86 C 266,86.55 265.55,87 265,87 C 264.45,87 264,86.55 264,86 z M 210,72 C 210,71.45 210.45,71 211,71 C 211.55,71 212,71.45 212,72 C 212,72.55 211.55,73 211,73 C 210.45,73 210,72.55 210,72 z M 187,62 C 187,61.45 187.45,61 188,61 C 188.55,61 189,61.45 189,62 C 189,62.55 188.55,63 188,63 C 187.45,63 187,62.55 187,62 z M 195,57 C 195,56.45 195.45,56 196,56 C 196.55,56 197,56.45 197,57 C 197,57.55 196.55,58 196,58 C 195.45,58 195,57.55 195,57 z M 198,52 C 198,51.45 198.45,51 199,51 C 199.55,51 200,51.45 200,52 C 200,52.55 199.55,53 199,53 C 198.45,53 198,52.55 198,52 z M 200,47 C 200,46.45 200.45,46 201,46 C 201.55,46 202,46.45 202,47 C 202,47.55 201.55,48 201,48 C 200.45,48 200,47.55 200,47 z M 194,46 C 194,45.45 194.45,45 195,45 C 195.55,45 196,45.45 196,46 C 196,46.55 195.55,47 195,47 C 194.45,47 194,46.55 194,46 z M 249,66 C 249,65.45 249.675,65 250.5,65 C 251.325,65 252,65.45 252,66 C 252,66.55 251.325,67 250.5,67 C 249.675,67 249,66.55 249,66 z M 263,62 C 263,61.45 263.675,61 264.5,61 C 265.325,61 266,61.45 266,62 C 266,62.55 265.325,63 264.5,63 C 263.675,63 263,62.55 263,62 z M 264,59 C 264,58.45 264.45,58 265,58 C 265.55,58 266,58.45 266,59 C 266,59.55 265.55,60 265,60 C 264.45,60 264,59.55 264,59 z M 221.5,40 C 221.16008,39.45 221.58352,39 222.44098,39 C 223.29844,39 224,39.45 224,40 C 224,40.55 223.57656,41 223.05902,41 C 222.54148,41 221.83992,40.55 221.5,40 z M 224,66 C 224,65.45 224.45,65 225,65 C 225.55,65 226,65.45 226,66 C 226,66.55 225.55,67 225,67 C 224.45,67 224,66.55 224,66 z M 211,65 C 211,64.45 211.45,64 212,64 C 212.55,64 213,64.45 213,65 C 213,65.55 212.55,66 212,66 C 211.45,66 211,65.55 211,65 z M 218,65 C 218,64.45 218.45,64 219,64 C 219.55,64 220,64.45 220,65 C 220,65.55 219.55,66 219,66 C 218.45,66 218,65.55 218,65 z M 228,65 C 228,64.45 228.45,64 229,64 C 229.55,64 230,64.45 230,65 C 230,65.55 229.55,66 229,66 C 228.45,66 228,65.55 228,65 z M 221,62 C 221,61.45 221.45,61 222,61 C 222.55,61 223,61.45 223,62 C 223,62.55 222.55,63 222,63 C 221.45,63 221,62.55 221,62 z M 228.51008,45.016312 C 228.16462,44.45734 228.58352,44 229.44098,44 C 231.19751,44 231.45614,44.600055 230.0691,45.457295 C 229.5571,45.773726 228.85554,45.575283 228.51008,45.016312 z M 202,44 C 202,43.45 202.45,43 203,43 C 203.55,43 204,43.45 204,44 C 204,44.55 203.55,45 203,45 C 202.45,45 202,44.55 202,44 z M 207.51008,43.016312 C 207.16462,42.45734 207.58352,42 208.44098,42 C 210.19751,42 210.45614,42.600055 209.0691,43.457295 C 208.5571,43.773726 207.85554,43.575283 207.51008,43.016312 z M 212,36 C 212,35.45 212.45,35 213,35 C 213.55,35 214,35.45 214,36 C 214,36.55 213.55,37 213,37 C 212.45,37 212,36.55 212,36 z M 227,34 C 227,33.45 227.45,33 228,33 C 228.55,33 229,33.45 229,34 C 229,34.55 228.55,35 228,35 C 227.45,35 227,34.55 227,34 z M 219,31 C 219,30.45 219.45,30 220,30 C 220.55,30 221,30.45 221,31 C 221,31.55 220.55,32 220,32 C 219.45,32 219,31.55 219,31 z " />
  <g
     id="Sizes"
     style="font-size:12px;font-style:normal;font-weight:normal;line-height:125%;fill:black;fill-opacity:1;stroke:none;stroke-width:1px;stroke-linecap:butt;stroke-linejoin:miter;stroke-opacity:1;font-family:Bitstream Vera Sans">
    <path
       id="path10415"
       style="fill:none;fill-rule:evenodd;stroke:black;stroke-width:2;stroke-linecap:square;stroke-linejoin:miter;stroke-miterlimit:4;stroke-opacity:1"
       d="M 476,340 L 476,345 M 508,340 L 508,345 M 476,342.5 L 508,342.5" />
    <path
       id="path12199"
       style="fill:none;fill-rule:evenodd;stroke:black;stroke-width:2;stroke-linecap:square;stroke-linejoin:miter;stroke-miterlimit:4;stroke-opacity:1"
       d="M 398,80 L 398,85 M 426,80 L 426,85 M 398,82.5 L 426,82.5" />
    <text
       xml:space="preserve"
       id="text12222"
       style="fill:black;fill-opacity:1"
       y="74.14286"
       x="395.41406"><tspan
         id="tspan12224"
         style="font-size:16px;font-style:normal;font-variant:normal;font-weight:normal;font-stretch:normal;text-align:start;line-height:125%;writing-mode:lr-tb;text-anchor:start;fill:black;fill-opacity:1;font-family:Times New Roman"
         y="74.14286"
         x="395.41406">5 </tspan></text>
    <text
       xml:space="preserve"
       id="text12232"
       style="fill:black;fill-opacity:1"
       y="332.14285"
       x="472.65625"><tspan
         id="tspan12234"
         style="font-size:16px;font-style:normal;font-variant:normal;font-weight:normal;font-stretch:normal;text-align:start;line-height:125%;writing-mode:lr-tb;text-anchor:start;fill:black;fill-opacity:1;font-family:Times New Roman"
         y="332.14285"
         x="472.65625">1 mm</tspan></text>
    <path
       style="font-size:20px;font-variant:normal;font-stretch:normal;text-align:start;writing-mode:lr-tb;text-anchor:start;font-family:Arial"
       d="M 411.98648,73.154106 C 411.04377,74.164523 410.22346,74.669731 409.52554,74.669731 C 409.07762,74.669731 408.66096,74.497856 408.27554,74.154106 L 408.27554,74.568169 C 408.27554,75.047335 408.34846,75.529105 408.49429,76.013481 C 408.66096,76.549937 408.74429,76.904104 408.74429,77.075981 C 408.74429,77.315562 408.66877,77.513478 408.51773,77.669731 C 408.36669,77.825978 408.17919,77.904103 407.95523,77.904106 C 407.72606,77.904103 407.54377,77.812957 407.40836,77.630669 C 407.27294,77.448374 407.20523,77.229624 407.20523,76.974419 C 407.20523,76.786916 407.27294,76.448375 407.40836,75.958794 C 407.5646,75.417126 407.64273,74.891085 407.64273,74.380669 L 407.64273,67.294731 L 408.93179,67.294731 L 408.93179,71.927544 C 408.93179,72.396296 408.97216,72.740045 409.05289,72.958794 C 409.13361,73.177545 409.27684,73.35593 409.48257,73.49395 C 409.6883,73.631972 409.92137,73.700982 410.18179,73.700981 C 410.64533,73.700982 411.24689,73.383274 411.98648,72.747856 L 411.98648,67.294731 L 413.28336,67.294731 L 413.28336,72.724419 C 413.28335,73.182753 413.33022,73.499159 413.42398,73.673637 C 413.51772,73.848117 413.67658,73.935357 413.90054,73.935356 C 414.2547,73.935357 414.48387,73.589003 414.58804,72.896294 L 414.86929,72.896294 C 414.77033,74.078586 414.27033,74.669731 413.36929,74.669731 C 412.97866,74.669731 412.65444,74.538221 412.39664,74.2752 C 412.13882,74.012179 412.0021,73.638482 411.98648,73.154106 L 411.98648,73.154106 z "
       id="text2022" />
    <text
       xml:space="preserve"
       style="font-size:20px;font-style:normal;font-variant:normal;font-weight:normal;font-stretch:normal;text-align:start;line-height:125%;writing-mode:lr-tb;text-anchor:start;fill:black;fill-opacity:1;stroke:none;stroke-width:1px;stroke-linecap:butt;stroke-linejoin:miter;stroke-opacity:1;font-family:Arial"
       x="415.07544"
       y="74.278893"
       id="text2027"
       sodipodi:linespacing="125%"><tspan
         sodipodi:role="line"
         id="tspan2029"
         x="415.07544"
         y="74.278893"
         style="font-size:16px;font-family:Times New Roman">m</tspan></text>
  </g>
  <g
     id="BigText"
     style="font-size:12px;font-style:normal;font-weight:normal;line-height:100%;fill:black;fill-opacity:1;stroke:none;stroke-width:1px;stroke-linecap:butt;stroke-linejoin:miter;stroke-opacity:1;font-family:Bitstream Vera Sans">
    <text
       xml:space="preserve"
       id="text12202"
       y="26.999998"
       x="368.57144"><tspan
         id="tspan12208"
         style="font-size:18px;font-style:normal;font-variant:normal;font-weight:normal;font-stretch:normal;text-align:center;line-height:100%;writing-mode:lr-tb;text-anchor:middle;font-family:Times New Roman"
         y="26.999998"
         x="368.57144">UNICELLULAR</tspan><tspan
         id="tspan12210"
         style="font-size:18px;font-style:normal;font-variant:normal;font-weight:normal;font-stretch:normal;text-align:center;line-height:100%;writing-mode:lr-tb;text-anchor:middle;font-family:Times New Roman"
         y="44.999996"
         x="368.57144">GROWTH</tspan></text>
    <text
       xml:space="preserve"
       id="text12212"
       y="215"
       x="224.57144"><tspan
         id="tspan12214"
         style="font-size:18px;font-style:normal;font-variant:normal;font-weight:normal;font-stretch:normal;text-align:center;line-height:100%;writing-mode:lr-tb;text-anchor:middle;font-family:Times New Roman"
         y="215"
         x="224.57144">MULTICELLULAR</tspan><tspan
         id="tspan12216"
         style="font-size:18px;font-style:normal;font-variant:normal;font-weight:normal;font-stretch:normal;text-align:center;line-height:100%;writing-mode:lr-tb;text-anchor:middle;font-family:Times New Roman"
         y="233"
         x="224.57144">DEVELOPMENT</tspan></text>
  </g>
  <g
     id="normalText"
     style="font-size:12px;font-style:normal;font-weight:normal;fill:black;fill-opacity:1;stroke:none;stroke-width:1px;stroke-linecap:butt;stroke-linejoin:miter;stroke-opacity:1;font-family:Bitstream Vera Sans">
    <text
       xml:space="preserve"
       id="text13171"
       y="172"
       x="513.57141"><tspan
         id="tspan13173"
         style="text-align:center;text-anchor:middle"
         y="172"
         x="513.57141">fruiting</tspan><tspan
         id="tspan13175"
         style="text-align:center;text-anchor:middle"
         y="187"
         x="513.57141">body</tspan></text>
    <text
       xml:space="preserve"
       id="text13123"
       y="19.857143"
       x="183.57144"><tspan
         id="tspan13125"
         y="19.857143"
         x="183.57144">vegetative growth</tspan></text>
    <text
       xml:space="preserve"
       id="text13127"
       y="82.714287"
       x="223.57143"><tspan
         id="tspan13129"
         y="82.714287"
         x="223.57143">amoeba</tspan></text>
    <text
       xml:space="preserve"
       id="text13131"
       y="131.28572"
       x="290"><tspan
         id="tspan13133"
         y="131.28572"
         x="290">germination</tspan></text>
    <text
       xml:space="preserve"
       id="text13135"
       y="103.42857"
       x="362.85715"><tspan
         id="tspan13137"
         y="103.42857"
         x="362.85715">spore</tspan></text>
    <text
       xml:space="preserve"
       id="text13139"
       y="165.57143"
       x="245.71429"><tspan
         id="tspan13141"
         y="165.57143"
         x="245.71429">starvation</tspan></text>
    <text
       xml:space="preserve"
       id="text13143"
       y="154.14285"
       x="75"><tspan
         id="tspan13145"
         y="154.14285"
         x="75">aggegration</tspan></text>
    <text
       xml:space="preserve"
       id="text13147"
       y="256.99997"
       x="27.857143"><tspan
         id="tspan13149"
         style="text-align:center;text-anchor:middle"
         y="256.99997"
         x="27.857143">loose</tspan><tspan
         id="tspan13151"
         style="text-align:center;text-anchor:middle"
         y="271.99997"
         x="27.857143">aggegrate</tspan></text>
    <text
       xml:space="preserve"
       id="text13153"
       y="288.96082"
       x="122.17802"><tspan
         id="tspan13155"
         style="text-align:center;text-anchor:middle"
         y="288.96082"
         x="122.17802">tight</tspan><tspan
         id="tspan13157"
         style="text-align:center;text-anchor:middle"
         y="303.96082"
         x="122.17802">aggegrate</tspan></text>
    <text
       xml:space="preserve"
       id="text13159"
       y="316.28571"
       x="207.85715"><tspan
         id="tspan13161"
         y="316.28571"
         x="207.85715">finger</tspan></text>
    <text
       xml:space="preserve"
       id="text13163"
       y="363.64511"
       x="244.28571"><tspan
         id="tspan13165"
         y="363.64511"
         x="244.28571">slug</tspan></text>
    <text
       xml:space="preserve"
       id="text13167"
       y="214.85715"
       x="386.42856"><tspan
         id="tspan13169"
         y="214.85715"
         x="386.42856">culmination</tspan></text>
  </g>
  <g
     id="FruitingBpdy"
     style="font-size:10px;font-style:italic;font-variant:normal;font-weight:normal;font-stretch:normal;text-align:start;line-height:125%;writing-mode:lr-tb;text-anchor:start;fill:black;fill-opacity:1;stroke:none;stroke-width:1px;stroke-linecap:butt;stroke-linejoin:miter;stroke-opacity:1;font-family:Arial">
    <path
       id="path15011"
       style="fill:none;fill-rule:evenodd;stroke:black;stroke-width:1px;stroke-linecap:butt;stroke-linejoin:miter;stroke-opacity:1"
       d="M 490.71429,189.85714 L 504.28571,202.71429" />
    <path
       id="path15009"
       style="fill:none;fill-rule:evenodd;stroke:black;stroke-width:1px;stroke-linecap:butt;stroke-linejoin:miter;stroke-opacity:1"
       d="M 499.28571,134.14286 L 493.57143,143.42857" />
    <text
       xml:space="preserve"
       id="text14995"
       y="128.42857"
       x="500"><tspan
         id="tspan14997"
         y="128.42857"
         x="500">spores</tspan></text>
    <text
       xml:space="preserve"
       id="text14999"
       y="208.42857"
       x="510"><tspan
         id="tspan15001"
         y="208.42857"
         x="510">stalk</tspan></text>
  </g>
</svg>
